<?xml version="1.0" standalone="no"?>
<!DOCTYPE svg PUBLIC "-//W3C//DTD SVG 20010904//EN"
 "http://www.w3.org/TR/2001/REC-SVG-20010904/DTD/svg10.dtd">
<svg version="1.0" xmlns="http://www.w3.org/2000/svg"
 width="225.000000pt" height="225.000000pt" viewBox="0 0 225.000000 225.000000"
 preserveAspectRatio="xMidYMid meet">

<g transform="translate(0.000000,225.000000) scale(0.100000,-0.100000)"
fill="#000000" stroke="none">
<path d="M618 1639 c-14 -8 -18 -23 -18 -70 0 -32 5 -68 12 -78 9 -15 5 -36
-23 -110 l-33 -91 -191 0 c-104 0 -207 -5 -227 -10 -49 -14 -78 -52 -78 -101
0 -35 3 -39 25 -39 24 0 25 -3 25 -60 0 -57 -1 -60 -25 -60 -21 0 -25 -5 -25
-29 0 -17 -10 -46 -21 -66 -19 -32 -20 -41 -10 -76 18 -59 57 -79 153 -79 l76
0 22 -46 c76 -157 309 -160 381 -5 l24 50 506 1 507 0 13 -31 c43 -105 161
-160 267 -125 61 21 126 86 141 144 11 37 15 41 62 52 43 10 50 15 47 34 -3
18 -11 21 -54 24 -39 2 -53 7 -57 20 -3 9 -8 25 -12 35 -6 15 0 17 54 17 l61
0 0 68 c0 37 -3 91 -6 120 l-7 52 -838 0 -839 0 0 40 0 40 835 0 836 0 -6 38
c-4 20 -18 83 -31 140 -13 57 -24 121 -24 142 0 75 54 70 -768 70 -482 -1
-743 -4 -754 -11z m322 -249 l0 -100 -140 0 c-77 0 -140 3 -140 6 0 8 59 174
66 185 3 5 52 9 110 9 l104 0 0 -100z m370 0 l0 -100 -140 0 -140 0 0 100 0
100 140 0 140 0 0 -100z m360 0 l0 -100 -145 0 -145 0 0 100 0 100 145 0 145
0 0 -100z m360 0 l0 -100 -145 0 -145 0 0 100 0 100 145 0 145 0 0 -100z
m-1262 -297 c4 -27 -15 -30 -34 -5 -10 13 -15 14 -25 5 -9 -9 -3 -15 25 -27
32 -13 37 -20 34 -43 -3 -25 -7 -28 -46 -31 -31 -2 -44 1 -48 13 -9 23 4 31
26 17 26 -16 40 -15 40 2 0 8 -13 17 -30 21 -36 8 -44 19 -36 51 6 23 11 25
49 22 35 -2 43 -7 45 -25z m120 0 c4 -27 -15 -30 -33 -6 -17 23 -35 7 -35 -32
0 -41 15 -53 39 -31 24 22 33 20 29 -6 -2 -18 -11 -24 -36 -26 -45 -5 -62 12
-62 62 0 52 15 68 60 64 28 -2 36 -8 38 -25z m52 2 c0 -18 5 -25 20 -25 15 0
20 7 20 25 0 16 6 25 15 25 12 0 15 -14 15 -65 0 -51 -3 -65 -15 -65 -9 0 -15
9 -15 25 0 18 -5 25 -20 25 -15 0 -20 -7 -20 -25 0 -16 -6 -25 -15 -25 -12 0
-15 14 -15 65 0 51 3 65 15 65 9 0 15 -9 15 -25z m188 13 c16 -16 16 -90 0
-106 -7 -7 -26 -12 -43 -12 -17 0 -36 5 -43 12 -16 16 -16 90 0 106 16 16 70
16 86 0z m135 -28 c6 -22 5 -45 -2 -62 -9 -24 -16 -28 -49 -28 -32 0 -41 5
-50 25 -16 35 -15 56 4 83 12 18 24 22 52 20 33 -3 38 -7 45 -38z m49 -12 c3
-49 5 -53 31 -56 44 -5 31 -22 -18 -22 l-45 0 0 65 c0 50 3 65 14 65 11 0 16
-15 18 -52z m194 17 c0 -17 4 -36 8 -43 4 -6 2 -21 -4 -32 -8 -15 -21 -20 -50
-20 l-40 0 0 66 0 65 43 -3 c39 -3 42 -5 43 -33z m56 -17 c3 -45 6 -53 23 -53
17 0 20 8 23 53 2 37 7 52 18 52 10 0 14 -13 14 -53 0 -61 -11 -77 -55 -77
-44 0 -55 16 -55 77 0 40 4 53 14 53 11 0 16 -15 18 -52z m188 33 c13 -26 -8
-41 -25 -18 -15 21 -35 22 -35 3 0 -7 13 -16 29 -19 33 -7 49 -40 31 -62 -16
-20 -74 -19 -90 0 -18 22 -4 31 25 15 19 -10 28 -11 37 -2 8 8 1 15 -26 26
-41 17 -54 39 -36 61 18 22 77 19 90 -4z m-1200 -196 c67 -60 40 -170 -46
-194 -69 -19 -144 37 -144 109 0 94 120 148 190 85z m1170 25 c0 -5 -5 -21
-12 -35 l-11 -25 -507 0 c-475 0 -508 1 -513 18 -2 9 -8 25 -12 35 -7 16 22
17 524 17 330 0 531 -4 531 -10z m268 -29 c36 -37 46 -81 28 -126 -19 -43 -56
-67 -105 -67 -69 1 -111 46 -111 115 1 67 44 106 117 107 33 0 48 -6 71 -29z"/>
<path d="M1064 1076 c-8 -34 4 -68 24 -64 24 5 24 81 0 86 -12 2 -19 -5 -24
-22z"/>
<path d="M1194 1087 c-10 -27 0 -72 16 -72 11 0 15 11 15 39 0 40 -20 61 -31
33z"/>
<path d="M1450 1086 c0 -9 7 -16 16 -16 9 0 14 5 12 12 -6 18 -28 21 -28 4z"/>
<path d="M1450 1024 c0 -17 22 -14 28 4 2 7 -3 12 -12 12 -9 0 -16 -7 -16 -16z"/>
</g>
</svg>
