<?xml version="1.0"?>
<svg xmlns="http://www.w3.org/2000/svg" width="512" height="512" viewBox="0 0 512 512"><g><circle cx="248" cy="192" r="16"/><circle cx="344" cy="192" r="16"/><path d="M438.49,360.6,360,337.98V310.35c20.29-15.67,37.55-37.47,44.6-62.35H428a28.031,28.031,0,0,0,28-28V172a28.031,28.031,0,0,0-28-28H408V128a112,112,0,0,0-224,0v16H164a28.031,28.031,0,0,0-28,28v48a28.031,28.031,0,0,0,28,28h4v32a8,8,0,0,0,8,8h32.91A142.581,142.581,0,0,0,232,310.35v27.63l-16,4.61V324a20.02,20.02,0,0,0-20-20H28A20.02,20.02,0,0,0,8,324V444a20.02,20.02,0,0,0,20,20H69.14l-3.56,16H48a8,8,0,0,0,0,16H496a8,8,0,0,0,8-8V445.67A88.03,88.03,0,0,0,438.49,360.6ZM432,160.7a12.014,12.014,0,0,1,8,11.3v48a12.014,12.014,0,0,1-8,11.3Zm-24-.7h8v72h-8ZM160,231.3a12.014,12.014,0,0,1-8-11.3V172a12.014,12.014,0,0,1,8-11.3ZM374.08,358.69,341.09,421.4l-32.33-15.84,45.91-52.46ZM296,395.85l-48-54.86V321.1c16.38,9.48,33.46,14.9,48,14.9s31.62-5.42,48-14.9v19.89ZM200,128a96,96,0,0,1,192,0v27.31a79.215,79.215,0,0,1-41.3-31.53,8.009,8.009,0,0,0-10.77-2.37c-.6.37-59.24,35.26-139.93,37.48Zm-24,32h8v72h-8Zm8,112V248h3.4a103.55,103.55,0,0,0,10.34,24Zm46.51,16h34.87A24.031,24.031,0,0,0,288,304h16a24,24,0,0,0,0-48H288a24.031,24.031,0,0,0-22.62,16H216.62C202.55,252.32,200,234.37,200,224V174.89c70.26-1.8,123.83-26.71,141.78-36.2A93.971,93.971,0,0,0,392,171.94V224c0,13.75-4.46,40.8-34.34,67.58C338.4,308.84,314.19,320,296,320s-42.4-11.16-61.66-28.42C233.01,290.39,231.74,289.19,230.51,288ZM280,280a8.011,8.011,0,0,1,8-8h16a8,8,0,0,1,0,16H288A8.011,8.011,0,0,1,280,280Zm-42.67,73.1,45.83,52.38-31.73,15.86L218.4,358.55ZM81.97,480l4.98-22.38v-.01L94.42,424h35.16l7.47,33.61v.01L142.03,480Zm69.34-32-7.5-33.74A7.994,7.994,0,0,0,136,408H88a7.994,7.994,0,0,0-7.81,6.26L72.69,448H28a4,4,0,0,1-4-4V324a4,4,0,0,1,4-4H196a4,4,0,0,1,4,4V444a4,4,0,0,1-4,4Zm114.92,32H158.42l-3.56-16H196a20.02,20.02,0,0,0,20-20V388.36l24.92,47.36a8.011,8.011,0,0,0,10.66,3.44l5.64-2.83,14.14,28.28Zm16.87,0,2.67-8h20.69l3,8Zm23.96-24H284.94l-13.41-26.82,24.28-12.14,24.68,12.08ZM488,480H448V456a8,8,0,0,0-16,0v24H326.54l-5.82-15.54,14.14-28.3,6.17,3.02a7.882,7.882,0,0,0,3.51.82,8,8,0,0,0,7.09-4.28l38.15-72.51L434.15,376a1.209,1.209,0,0,1,.18.05A72.03,72.03,0,0,1,488,445.67Z"/><path d="M24,480H16a8,8,0,0,0,0,16h8a8,8,0,0,0,0-16Z"/></g></svg>
