<?xml version="1.0"?>
<svg xmlns="http://www.w3.org/2000/svg" id="outline" viewBox="0 0 512 512" width="512" height="512"><path d="M32,144H336v16h16V64a16.01582,16.01582,0,0,0-16-16H280V44a28,28,0,0,0-56,0v4h-8V44a28,28,0,0,0-56,0v4h-8V44a28,28,0,0,0-56,0v4H32A16.01582,16.01582,0,0,0,16,64V408a16.01582,16.01582,0,0,0,16,16H208V408H32ZM240,44a12,12,0,0,1,24,0v4H240Zm-64,0a12,12,0,0,1,24,0v4H176Zm-64,0a12,12,0,0,1,24,0v4H112ZM96,64V88h16V64h48V88h16V64h48V88h16V64h96v64H32V64Z"/><path d="M128,184a8.00039,8.00039,0,0,0-8-8H80a8.00039,8.00039,0,0,0-8,8v40a8.00039,8.00039,0,0,0,8,8h40a8.00039,8.00039,0,0,0,8-8Zm-16,32H88V192h24Z"/><path d="M200,176H160a8.00039,8.00039,0,0,0-8,8v40a8.00039,8.00039,0,0,0,8,8h40a8.00039,8.00039,0,0,0,8-8V184A8.00039,8.00039,0,0,0,200,176Zm-8,40H168V192h24Z"/><path d="M128,256a8.00039,8.00039,0,0,0-8-8H80a8.00039,8.00039,0,0,0-8,8v40a8.00039,8.00039,0,0,0,8,8h40a8.00039,8.00039,0,0,0,8-8Zm-16,32H88V264h24Z"/><path d="M200,248H160a8.00039,8.00039,0,0,0-8,8v40a8.00039,8.00039,0,0,0,8,8h40a8.00039,8.00039,0,0,0,8-8V256A8.00039,8.00039,0,0,0,200,248Zm-8,40H168V264h24Z"/><path d="M120,320H80a8.00039,8.00039,0,0,0-8,8v40a8.00039,8.00039,0,0,0,8,8h40a8.00039,8.00039,0,0,0,8-8V328A8.00039,8.00039,0,0,0,120,320Zm-8,40H88V336h24Z"/><path d="M200,320H160a8.00039,8.00039,0,0,0-8,8v40a8.00039,8.00039,0,0,0,8,8h40a8.00039,8.00039,0,0,0,8-8V328A8.00039,8.00039,0,0,0,200,320Zm-8,40H168V336h24Z"/><path d="M480,376H464V328a95.35518,95.35518,0,0,0-8.11279-38.48535l10.87841-38.07715A135.9155,135.9155,0,0,0,472,214.07422V192a16.01582,16.01582,0,0,0-16-16H424a16.01582,16.01582,0,0,0-16,16v3.22656a119.81586,119.81586,0,0,1-6.16016,37.94922l-1.51464,4.54443q-4.08326-1.467-8.3252-2.56054V224a24,24,0,0,0-48,0v11.15967q-4.24292,1.09789-8.3252,2.56054l-1.51464-4.54443A119.81586,119.81586,0,0,1,328,195.22656V192a16.01582,16.01582,0,0,0-16-16H280a16.01582,16.01582,0,0,0-16,16v22.07422a135.9155,135.9155,0,0,0,5.23438,37.36328l10.87841,38.07715A95.35518,95.35518,0,0,0,272,328v48H256a16.01582,16.01582,0,0,0-16,16v80a24.02624,24.02624,0,0,0,24,24H472a24.02624,24.02624,0,0,0,24-24V392A16.01582,16.01582,0,0,0,480,376Zm0,16v16H464V392Zm-64-32H320V336h96Zm-96,16h96v48H320Zm112-40a16.01582,16.01582,0,0,0-16-16H320a16.01582,16.01582,0,0,0-16,16v88H288V328a80,80,0,0,1,160,0v96H432Zm-14.98047-97.76172A135.75716,135.75716,0,0,0,424,195.22656V192h32v22.07422a119.967,119.967,0,0,1-4.61719,32.96484l-6.6997,23.44971a96.58648,96.58648,0,0,0-29.70655-26.12158ZM360,224a8,8,0,0,1,16,0v8.40527c-2.64453-.21972-5.2998-.40527-8-.40527s-5.35547.18555-8,.40527Zm-75.38281,23.03906A119.967,119.967,0,0,1,280,214.07422V192h32v3.22656a135.75716,135.75716,0,0,0,6.98047,43.01172l2.043,6.12891a96.58648,96.58648,0,0,0-29.70655,26.12158ZM256,392h16v16H256Zm0,80V424h16v56h-8A8.01042,8.01042,0,0,1,256,472Zm32-32H448v40H288Zm192,32a8.01042,8.01042,0,0,1-8,8h-8V424h16Z"/></svg>
