<svg xmlns="http://www.w3.org/2000/svg" width="39.394" height="40.02" viewBox="0 0 39.394 40.02">
  <g id="election-event-on-a-calendar-with-star-symbol" transform="translate(-0.977)">
    <g id="Group_3217" data-name="Group 3217" transform="translate(0.977)">
      <path id="Path_9002" data-name="Path 9002" d="M41.64,60.334l-.614,3.647a1.33,1.33,0,0,0,1.927,1.4l3.279-1.712,3.279,1.712a1.33,1.33,0,0,0,1.928-1.4l-.613-3.647,2.64-2.59a1.33,1.33,0,0,0-.737-2.267l-3.658-.543-1.648-3.312a1.331,1.331,0,0,0-2.384,0l-1.646,3.312-3.658.542A1.331,1.331,0,0,0,39,57.744Z" transform="translate(-26.536 -34.569)" fill="#fff"/>
      <path id="Path_9003" data-name="Path 9003" d="M36.4,4.255H32.207V1.931A1.931,1.931,0,0,0,30.276,0H29.97a1.931,1.931,0,0,0-1.931,1.931V4.255H13.259V1.931A1.931,1.931,0,0,0,11.328,0h-.307A1.931,1.931,0,0,0,9.091,1.931V4.255H4.951A3.979,3.979,0,0,0,.977,8.229V36.046A3.979,3.979,0,0,0,4.951,40.02H36.4a3.979,3.979,0,0,0,3.974-3.974V8.229A3.979,3.979,0,0,0,36.4,4.255Zm-.518,31.273H5.469V13.873H35.878Z" transform="translate(-0.977)" fill="#fff"/>
    </g>
  </g>
</svg>
