<svg xmlns="http://www.w3.org/2000/svg" width="40.004" height="40.004" viewBox="0 0 40.004 40.004">
  <g id="event" transform="translate(-16 -16)">
    <path id="Path_8990" data-name="Path 8990" d="M52.67,18.667h-4V18a2,2,0,1,0-4,0v.667H38V18a2,2,0,1,0-4,0v.667H27.334V18a2,2,0,1,0-4,0v.667h-4A3.337,3.337,0,0,0,16,22V52.67A3.337,3.337,0,0,0,19.334,56H52.67A3.337,3.337,0,0,0,56,52.67V22A3.337,3.337,0,0,0,52.67,18.667ZM46,18a.667.667,0,1,1,1.333,0v4A.667.667,0,0,1,46,22ZM35.335,18a.667.667,0,1,1,1.333,0v4a.667.667,0,1,1-1.333,0ZM24.667,18A.667.667,0,1,1,26,18v4a.667.667,0,0,1-1.333,0Zm-5.334,2h4v2a2,2,0,1,0,4,0V20H34v2a2,2,0,1,0,4,0V20h6.667v2a2,2,0,1,0,4,0V20h4a2,2,0,0,1,2,2v4.667H17.333V22a2,2,0,0,1,2-2ZM52.67,54.67H19.334a2,2,0,0,1-2-2V28H54.67V52.67A2,2,0,0,1,52.67,54.67Z" transform="translate(0 0)" fill="#fff"/>
    <path id="Path_8991" data-name="Path 8991" d="M403.334,216h-2.667a.667.667,0,0,0-.667.667v2.667a.667.667,0,0,0,.667.667h2.667a.667.667,0,0,0,.667-.667v-2.667A.667.667,0,0,0,403.334,216Zm-.667,2.667h-1.333v-1.333h1.333Z" transform="translate(-351.997 -183.332)" fill="#fff"/>
    <path id="Path_8992" data-name="Path 8992" d="M243.334,376h-2.667a.667.667,0,0,0-.667.667v2.667a.667.667,0,0,0,.667.667h2.667a.667.667,0,0,0,.667-.667v-2.667A.667.667,0,0,0,243.334,376Zm-.667,2.667h-1.333v-1.333h1.333Z" transform="translate(-205.332 -329.997)" fill="#fff"/>
    <path id="Path_8993" data-name="Path 8993" d="M163.334,216h-2.667a.667.667,0,0,0-.667.667v2.667a.667.667,0,0,0,.667.667h2.667a.667.667,0,0,0,.667-.667v-2.667A.667.667,0,0,0,163.334,216Zm-.667,2.667h-1.333v-1.333h1.333Z" transform="translate(-131.999 -183.332)" fill="#fff"/>
    <path id="Path_8994" data-name="Path 8994" d="M83.334,296H80.667a.667.667,0,0,0-.667.667v2.667a.667.667,0,0,0,.667.667h2.667a.667.667,0,0,0,.667-.667v-2.667A.667.667,0,0,0,83.334,296Zm-.667,2.667H81.333v-1.333h1.333Z" transform="translate(-58.666 -256.664)" fill="#fff"/>
    <path id="Path_8995" data-name="Path 8995" d="M163.334,296h-2.667a.667.667,0,0,0-.667.667v2.667a.667.667,0,0,0,.667.667h2.667a.667.667,0,0,0,.667-.667v-2.667A.667.667,0,0,0,163.334,296Zm-.667,2.667h-1.333v-1.333h1.333Z" transform="translate(-131.999 -256.664)" fill="#fff"/>
    <path id="Path_8996" data-name="Path 8996" d="M83.334,376H80.667a.667.667,0,0,0-.667.667v2.667a.667.667,0,0,0,.667.667h2.667a.667.667,0,0,0,.667-.667v-2.667A.667.667,0,0,0,83.334,376Zm-.667,2.667H81.333v-1.333h1.333Z" transform="translate(-58.666 -329.997)" fill="#fff"/>
    <path id="Path_8997" data-name="Path 8997" d="M163.334,376h-2.667a.667.667,0,0,0-.667.667v2.667a.667.667,0,0,0,.667.667h2.667a.667.667,0,0,0,.667-.667v-2.667A.667.667,0,0,0,163.334,376Zm-.667,2.667h-1.333v-1.333h1.333Z" transform="translate(-131.999 -329.997)" fill="#fff"/>
    <path id="Path_8998" data-name="Path 8998" d="M243.438,204.081l-3.334-.509-1.5-3.19a.667.667,0,0,0-1.207,0l-1.5,3.19-3.334.509a.667.667,0,0,0-.377,1.125l2.432,2.492-.575,3.528a.667.667,0,0,0,.98.69L238,210.273l2.974,1.644a.667.667,0,0,0,.981-.691l-.575-3.528,2.432-2.492a.667.667,0,0,0-.377-1.125Zm-3.245,2.927a.667.667,0,0,0-.181.573l.408,2.5-2.095-1.158a.667.667,0,0,0-.645,0l-2.095,1.158.408-2.5a.667.667,0,0,0-.181-.573l-1.76-1.8,2.4-.367a.667.667,0,0,0,.5-.376L238,202.235l1.045,2.226a.667.667,0,0,0,.5.376l2.4.367Z" transform="translate(-198.002 -168.664)" fill="#fff"/>
    <path id="Path_8999" data-name="Path 8999" d="M403.334,296h-2.667a.667.667,0,0,0-.667.667v2.667a.667.667,0,0,0,.667.667h2.667a.667.667,0,0,0,.667-.667v-2.667A.667.667,0,0,0,403.334,296Zm-.667,2.667h-1.333v-1.333h1.333Z" transform="translate(-351.997 -256.664)" fill="#fff"/>
    <path id="Path_9000" data-name="Path 9000" d="M403.334,376h-2.667a.667.667,0,0,0-.667.667v2.667a.667.667,0,0,0,.667.667h2.667a.667.667,0,0,0,.667-.667v-2.667A.667.667,0,0,0,403.334,376Zm-.667,2.667h-1.333v-1.333h1.333Z" transform="translate(-351.997 -329.997)" fill="#fff"/>
    <path id="Path_9001" data-name="Path 9001" d="M323.334,376h-2.667a.667.667,0,0,0-.667.667v2.667a.667.667,0,0,0,.667.667h2.667a.667.667,0,0,0,.667-.667v-2.667A.667.667,0,0,0,323.334,376Zm-.667,2.667h-1.333v-1.333h1.333Z" transform="translate(-278.664 -329.997)" fill="#fff"/>
  </g>
</svg>
