<svg height="512pt" viewBox="-12 0 511 512" width="512pt" xmlns="http://www.w3.org/2000/svg"><path d="m401.03125 126.863281-97.085938 48.480469 41.226563 20.675781v35.433594c0 8.5625 7.46875 16.03125 16.03125 16.03125h80.15625c8.566406 0 15.03125-7.46875 15.03125-16.03125v-35.433594l17.03125-8.519531v43.953125h15.03125v-60.753906zm40.328125 104.589844c0 .273437.277344 1 0 1h-80.15625c-.273437 0-1-.726563-1-1v-27.921875l40.578125 20.289062 40.578125-20.289062zm-40.078125-24.433594-63.351562-31.675781 63.351562-31.679688 63.355469 31.679688zm0 0"/><path d="m393.265625 111.21875h15.03125v-8.015625h16.03125v-39.078125h-32.0625v-9.015625h33.0625v-15.03125h-17.03125v-9.015625h-15.03125v9.015625h-16.03125v39.078125h32.0625v9.015625h-32.0625v15.03125h16.03125zm0 0"/><path d="m305.09375 199.390625h15.03125v48.09375h-15.03125zm0 0"/><path d="m79.65625 343.671875v-304.59375c0-9.269531-2.710938-18.035156-8.070312-24.046875h209.460937c13.539063 0 24.046875 10.507812 24.046875 24.046875v112.21875h15.03125v-112.21875c0-21.824219-17.253906-39.078125-39.078125-39.078125h-240.46875c-21.824219 0-40.078125 17.253906-40.078125 39.078125v72.140625h64.125v161.3125h-64.125v71.140625c0 21.820313 18.253906 40.078125 40.078125 40.078125h176.34375v-15.03125h-145.335937c5.359374-7.011719 8.070312-15.78125 8.070312-25.046875zm-64.125-247.484375v-57.109375c0-13.539063 11.007812-24.550781 24.546875-24.550781 13.535156 0 24.546875 11.011718 24.546875 24.550781v57.109375zm0 247.484375v-56.109375h49.09375v56.109375c0 13.535156-11.011719 24.546875-24.546875 24.546875-13.539063 0-24.546875-11.011719-24.546875-24.546875zm0 0"/><path d="m104.703125 48.09375h112.21875v15.03125h-112.21875zm0 0"/><path d="m128.75 80.15625h88.171875v15.03125h-88.171875zm0 0"/><path d="m280.046875 48.09375h-47.09375v47.09375h47.09375zm-15.03125 32.0625h-17.03125v-17.03125h17.03125zm0 0"/><path d="m104.703125 128.25h112.21875v15.03125h-112.21875zm0 0"/><path d="m280.046875 128.25h-47.09375v47.09375h47.09375zm-15.03125 32.0625h-17.03125v-17.03125h17.03125zm0 0"/><path d="m104.703125 208.40625h112.21875v15.03125h-112.21875zm0 0"/><path d="m128.75 240.46875h88.171875v15.03125h-88.171875zm0 0"/><path d="m232.953125 255.5h47.09375v-47.09375h-47.09375zm15.03125-32.0625h17.03125v17.03125h-17.03125zm0 0"/><path d="m104.703125 288.5625h112.21875v15.03125h-112.21875zm0 0"/><path d="m128.75 320.625h88.171875v15.03125h-88.171875zm0 0"/><path d="m136.765625 160.3125h16.03125v15.03125h-16.03125zm0 0"/><path d="m168.828125 160.3125h16.03125v15.03125h-16.03125zm0 0"/><path d="m200.890625 160.3125h16.03125v15.03125h-16.03125zm0 0"/><path d="m265.015625 351.6875h111.21875v-55.109375h-111.21875zm15.03125-40.078125h81.15625v25.046875h-81.15625zm0 0"/><path d="m232.953125 512h175.34375v-247.484375h-175.34375zm15.03125-232.453125h145.28125v217.421875h-145.28125zm0 0"/><path d="m329.140625 479.9375h47.09375v-47.09375h-47.09375zm15.03125-32.0625h17.03125v17.03125h-17.03125zm0 0"/><path d="m329.140625 415.8125h47.09375v-47.09375h-47.09375zm15.03125-32.0625h17.03125v17.03125h-17.03125zm0 0"/><path d="m265.015625 479.9375h47.09375v-47.09375h-47.09375zm15.03125-32.0625h17.03125v17.03125h-17.03125zm0 0"/><path d="m265.015625 415.8125h47.09375v-47.09375h-47.09375zm15.03125-32.0625h17.03125v17.03125h-17.03125zm0 0"/></svg>