<svg id="Layer_3" enable-background="new 0 0 64 64" height="512" viewBox="0 0 64 64" width="512" xmlns="http://www.w3.org/2000/svg"><path d="m25 39h-4-2-4.486c-1.188 0-2.34.349-3.328 1.008l-.48.32c-.66.44-1.427.672-2.22.672h-7.486v2h5v8h-5v2h7c.552 0 1 .449 1 1 0 1.654 1.346 3 3 3v5c0 .552.447 1 1 1h1c2.206 0 4-1.794 4-4v-2h1 2 4c1.654 0 3-1.346 3-3 0-.771-.301-1.468-.78-2 .48-.532.78-1.229.78-2s-.301-1.468-.78-2c.48-.532.78-1.229.78-2s-.301-1.468-.78-2c.48-.532.78-1.229.78-2 0-1.654-1.346-3-3-3zm0 16h-4-2-2c-.553 0-1 .448-1 1v3c0 1.103-.897 2-2 2v-5c0-.552-.447-1-1-1h-1c-.552 0-1-.449-1-1 0-1.654-1.346-3-3-3v-8h.486c1.188 0 2.34-.349 3.328-1.008l.48-.32c.66-.44 1.427-.672 2.22-.672h4.486 2 4c.552 0 1 .449 1 1s-.448 1-1 1h-6v2h6c.552 0 1 .449 1 1s-.448 1-1 1h-6v2h6c.552 0 1 .449 1 1s-.448 1-1 1h-6v2h6c.552 0 1 .449 1 1s-.448 1-1 1z"/><path d="m55 48c0-1.654-1.346-3-3-3v-5c0-.552-.447-1-1-1h-1c-2.206 0-4 1.794-4 4v2h-1-2-4c-1.654 0-3 1.346-3 3 0 .771.301 1.468.78 2-.48.532-.78 1.229-.78 2s.301 1.468.78 2c-.48.532-.78 1.229-.78 2s.301 1.468.78 2c-.48.532-.78 1.229-.78 2 0 1.654 1.346 3 3 3h4 2 4.486c1.188 0 2.34-.349 3.328-1.008l.48-.32c.66-.44 1.427-.672 2.22-.672h7.486v-2h-5v-8h5v-2h-7c-.552 0-1-.449-1-1zm1 11h-.486c-1.188 0-2.34.349-3.328 1.008l-.48.32c-.66.44-1.427.672-2.22.672h-4.486-2-4c-.552 0-1-.449-1-1s.448-1 1-1h6v-2h-6c-.552 0-1-.449-1-1s.448-1 1-1h6v-2h-6c-.552 0-1-.449-1-1s.448-1 1-1h6v-2h-6c-.552 0-1-.449-1-1s.448-1 1-1h4 2 2c.553 0 1-.448 1-1v-3c0-1.103.897-2 2-2v5c0 .552.447 1 1 1h1c.552 0 1 .449 1 1 0 1.654 1.346 3 3 3z"/><path d="m27 9h2v2h-2z"/><path d="m31 9h2v2h-2z"/><path d="m35 9h2v2h-2z"/><path d="m41 10c0-4.962-4.037-9-9-9s-9 4.038-9 9c0 4.624 3.507 8.442 8 8.941v18.059h2v-18.059c4.493-.499 8-4.317 8-8.941zm-16 0c0-3.86 3.141-7 7-7s7 3.14 7 7-3.141 7-7 7-7-3.14-7-7z"/><path d="m5 23h2v2h-2z"/><path d="m9 23h2v2h-2z"/><path d="m13 23h2v2h-2z"/><path d="m19 24c0-4.962-4.037-9-9-9s-9 4.038-9 9 4.037 9 9 9c2.47 0 4.71-1.001 6.338-2.618l12.138 7.469 1.049-1.703-11.929-7.341c.884-1.392 1.404-3.038 1.404-4.807zm-9 7c-3.859 0-7-3.14-7-7s3.141-7 7-7 7 3.14 7 7-3.141 7-7 7z"/><path d="m49 23h2v2h-2z"/><path d="m53 23h2v2h-2z"/><path d="m57 23h2v2h-2z"/><path d="m54 33c4.963 0 9-4.038 9-9s-4.037-9-9-9-9 4.038-9 9c0 1.769.52 3.415 1.405 4.807l-11.929 7.341 1.049 1.703 12.138-7.469c1.627 1.617 3.867 2.618 6.337 2.618zm0-16c3.859 0 7 3.14 7 7s-3.141 7-7 7-7-3.14-7-7 3.141-7 7-7z"/></svg>