<?xml version="1.0" encoding="iso-8859-1"?>
<!-- Generator: Adobe Illustrator 19.0.0, SVG Export Plug-In . SVG Version: 6.00 Build 0)  -->
<svg version="1.1" id="Capa_1" xmlns="http://www.w3.org/2000/svg" xmlns:xlink="http://www.w3.org/1999/xlink" x="0px" y="0px"
	 viewBox="0 0 512 512" style="enable-background:new 0 0 512 512;" xml:space="preserve">
<g>
	<g>
		<path d="M360.005,371.996c-20.952,0-37.999,17.046-37.999,37.999c0,20.952,17.046,37.999,37.999,37.999
			c20.952,0,37.999-17.046,37.999-37.999C398.004,389.043,380.957,371.996,360.005,371.996z M360.005,427.994
			c-9.925,0-17.999-8.075-17.999-17.999c0-9.925,8.075-17.999,17.999-17.999c9.925,0,17.999,8.075,17.999,17.999
			C378.004,419.92,369.929,427.994,360.005,427.994z"/>
	</g>
</g>
<g>
	<g>
		<path d="M468.001,313.998H252.009c-24.261,0-43.999,19.737-43.999,43.999v133.996h-70.015v-53.998c0-5.522-4.478-10-10-10
			c-5.522,0-10,4.478-10,10v53.998H73.998v-99.997c0-43.56,35.438-78.997,78.997-78.997c5.522,0,10-4.478,10-10
			c0-0.112-0.013-0.221-0.017-0.333c10.696,6.55,23.262,10.333,36.697,10.333c38.863,0,70.48-31.617,70.48-70.48v-23.94
			c0-38.863-31.617-70.479-70.48-70.479c-38.862,0-70.479,31.617-70.479,70.479v23.94c0,19.794,8.214,37.697,21.397,50.51
			c-53.482,1.281-96.595,45.183-96.595,98.967v109.996c0,5.522,4.478,10,10,10H502c5.522,0,10-4.478,10-10V357.997
			C512,333.736,492.262,313.998,468.001,313.998z M149.194,242.518v-23.94c0-27.834,22.645-50.479,50.479-50.479
			c27.834,0,50.48,22.645,50.48,50.479v23.94c0,27.834-22.645,50.48-50.48,50.48C171.838,292.999,149.194,270.354,149.194,242.518z
			 M492.001,451.931h-46.749c-5.522,0-10,4.478-10,10c0,5.522,4.478,10,10,10h46.749v20.062H335.664v-0.001H228.009V357.997
			c0-13.233,10.767-23.999,23.999-23.999h215.993c13.233,0,23.999,10.767,23.999,23.999V451.931z"/>
	</g>
</g>
<g>
	<g>
		<path d="M412.585,454.873c-1.859-1.86-4.429-2.93-7.069-2.93c-2.631,0-5.211,1.069-7.07,2.93c-1.86,1.86-2.93,4.439-2.93,7.07
			c0,2.63,1.069,5.21,2.93,7.069c1.859,1.86,4.439,2.931,7.07,2.931c2.64,0,5.21-1.07,7.069-2.931
			c1.87-1.859,2.931-4.439,2.931-7.069C415.516,459.312,414.455,456.733,412.585,454.873z"/>
	</g>
</g>
<g>
	<g>
		<path d="M483.009,54.007H374.997c-15.985,0-28.991,13.005-28.991,28.991v94.72l-23.214,23.213c-3.905,3.905-3.905,10.237,0,14.143
			l23.214,23.213v6.723c0,15.985,13.006,28.991,28.991,28.991H483.01c15.984,0,28.99-13.006,28.99-28.991V82.998
			C512,67.012,498.994,54.007,483.009,54.007z M492.001,245.009c0,4.958-4.033,8.992-8.991,8.992H374.997
			c-4.958,0-8.992-4.034-8.992-8.992v-10.865c0-2.652-1.054-5.196-2.929-7.071l-19.071-19.071l19.071-19.071
			c1.875-1.875,2.929-4.419,2.929-7.071V82.998c0-4.958,4.034-8.992,8.992-8.992H483.01c4.958,0,8.991,4.034,8.991,8.992V245.009z"
			/>
	</g>
</g>
<g>
	<g>
		<path d="M273.06,135.934c-1.859-1.86-4.439-2.93-7.069-2.93s-5.21,1.07-7.07,2.93s-2.93,4.44-2.93,7.07
			c0,2.63,1.069,5.21,2.93,7.07c1.861,1.86,4.44,2.93,7.07,2.93s5.21-1.07,7.069-2.93c1.86-1.86,2.931-4.44,2.931-7.07
			C275.991,140.374,274.921,137.794,273.06,135.934z"/>
	</g>
</g>
<g>
	<g>
		<path d="M265.991,0.009H158.02c-7.688,0-14.708,2.908-20.024,7.677c-5.317-4.77-12.337-7.677-20.024-7.677H10
			c-5.522,0-10,4.477-10,10v177.994c0,5.523,4.478,10,10,10h84.997c5.522,0,10-4.477,10-10s-4.478-10-10-10H19.999V20.008h97.972
			c5.528,0,10.025,4.497,10.025,10.025v128.067c0,5.523,4.478,10,10,10c5.522,0,10-4.477,10-10V30.033
			c0-5.528,4.497-10.025,10.025-10.025h97.972v89.01c0,5.523,4.478,10,10,10c5.522,0,10-4.477,10-10v-99.01
			C275.991,4.485,271.513,0.009,265.991,0.009z"/>
	</g>
</g>
<g>
	<g>
		<path d="M455.218,110.005h-50.323c-5.522,0-10,4.477-10,10s4.478,10,10,10h50.323c5.522,0,10-4.477,10-10
			C465.218,114.482,460.741,110.005,455.218,110.005z"/>
	</g>
</g>
<g>
	<g>
		<path d="M455.218,154.003h-50.323c-5.522,0-10,4.477-10,10c0,5.523,4.478,10,10,10h50.323c5.522,0,10-4.477,10-10
			C465.218,158.48,460.741,154.003,455.218,154.003z"/>
	</g>
</g>
<g>
	<g>
		<path d="M455.218,198.002h-50.323c-5.522,0-10,4.477-10,10c0,5.523,4.478,10,10,10h50.323c5.522,0,10-4.477,10-10
			C465.218,202.479,460.741,198.002,455.218,198.002z"/>
	</g>
</g>
<g>
	<g>
		<path d="M97.144,45.007H46.82c-5.522,0-10,4.477-10,10s4.478,10,10,10h50.323c5.522,0,10-4.477,10-10
			S102.667,45.007,97.144,45.007z"/>
	</g>
</g>
<g>
	<g>
		<path d="M97.144,89.006H46.82c-5.522,0-10,4.477-10,10s4.478,10,10,10h50.323c5.522,0,10-4.477,10-10
			S102.667,89.006,97.144,89.006z"/>
	</g>
</g>
<g>
	<g>
		<path d="M97.144,133.004H46.82c-5.522,0-10,4.477-10,10s4.478,10,10,10h50.323c5.522,0,10-4.477,10-10
			S102.667,133.004,97.144,133.004z"/>
	</g>
</g>
<g>
	<g>
		<path d="M225.14,45.007h-50.323c-5.522,0-10,4.477-10,10s4.478,10,10,10h50.323c5.522,0,10-4.477,10-10
			S230.662,45.007,225.14,45.007z"/>
	</g>
</g>
<g>
	<g>
		<path d="M225.14,89.006h-50.323c-5.522,0-10,4.477-10,10s4.478,10,10,10h50.323c5.522,0,10-4.477,10-10
			S230.662,89.006,225.14,89.006z"/>
	</g>
</g>
<g>
</g>
<g>
</g>
<g>
</g>
<g>
</g>
<g>
</g>
<g>
</g>
<g>
</g>
<g>
</g>
<g>
</g>
<g>
</g>
<g>
</g>
<g>
</g>
<g>
</g>
<g>
</g>
<g>
</g>
</svg>
