<svg xmlns="http://www.w3.org/2000/svg" width="26.681" height="28.46" viewBox="0 0 26.681 28.46">
  <g id="notice-tag" transform="translate(-0.89)">
    <path id="Path_9004" data-name="Path 9004" d="M7.883,7.2H3.977S.89,7.332.89,10.319v4.113s-.064,3.446,2.962,3.446a2.424,2.424,0,0,1,1.071,1.928v7.432A.982.982,0,0,0,5.93,28.431s3.493.544,1.762-3.028a2.018,2.018,0,0,0,.148-2.731,1.972,1.972,0,0,0,.043-2.667,5.592,5.592,0,0,0,1.009-2.191l.062-9.488A.956.956,0,0,0,7.883,7.2ZM3.336,14.642a.9.9,0,1,1-1.794,0V10.311a.9.9,0,0,1,1.794,0Z" fill="#fff"/>
    <path id="Path_9005" data-name="Path 9005" d="M25.777,9.144V.474c0-1.135-.961.124-.961.124C20.272,7.656,10.9,7.09,10.9,7.09c-1.108,0-.932.944-.932.944v8.189a.955.955,0,0,0,.988.944c10.485,0,14.057,6.626,14.057,6.626s.826,1.028.769-.043V15.1a3.365,3.365,0,0,0,0-5.952Z" fill="#fff"/>
  </g>
</svg>
