<svg id="Layer_1" enable-background="new 0 0 512 512" height="512" viewBox="0 0 512 512" width="512" xmlns="http://www.w3.org/2000/svg"><g><path d="m496.5 430.733h-17.634v-274.134c0-22.404-18.228-40.632-40.632-40.632h-75.334v-42.2-33.133-17.134c0-12.958-10.542-23.5-23.5-23.5h-34.267c-6.177 0-11.801 2.399-16 6.31-4.199-3.911-9.823-6.31-16-6.31h-34.267c-6.177 0-11.801 2.399-16 6.31-4.199-3.911-9.823-6.31-16-6.31h-34.266c-12.958 0-23.5 10.542-23.5 23.5v17.134 33.133 42.2h-75.334c-22.405 0-40.632 18.228-40.632 40.632v274.135h-17.634c-8.547 0-15.5 6.953-15.5 15.5v26.266c0 21.78 17.72 39.5 39.5 39.5h383.735c4.142 0 7.5-3.357 7.5-7.5s-3.358-7.5-7.5-7.5h-292.268v-9.066c0-4.143-3.358-7.5-7.5-7.5s-7.5 3.357-7.5 7.5v9.066h-18.134v-9.066c0-4.143-3.358-7.5-7.5-7.5s-7.5 3.357-7.5 7.5v9.066h-18.133v-9.066c0-4.143-3.358-7.5-7.5-7.5s-7.5 3.357-7.5 7.5v9.066h-10.2c-13.509 0-24.5-10.99-24.5-24.5v-26.267c0-.275.224-.5.5-.5h183.3v17.35c0 8.703 7.081 15.783 15.784 15.783h82.833c8.703 0 15.784-7.08 15.784-15.783v-17.35h183.3c.276 0 .5.225.5.5v26.267c0 13.51-10.991 24.5-24.5 24.5h-19.265c-4.142 0-7.5 3.357-7.5 7.5s3.358 7.5 7.5 7.5h19.264c21.78 0 39.5-17.72 39.5-39.5v-26.267c0-8.547-6.953-15.5-15.5-15.5zm-58.266-299.766c14.134 0 25.632 11.498 25.632 25.632v274.135h-18.131v-265.85c0-8.703-7.081-15.783-15.783-15.783h-67.052v-18.134zm-156.601 142.166c0 4.686-3.813 8.5-8.5 8.5h-34.267c-4.687 0-8.5-3.814-8.5-8.5v-158.733h51.267zm-117.533-191.866h51.267v25.633 166.232c0 4.686-3.813 8.5-8.5 8.5h-34.267c-4.687 0-8.5-3.814-8.5-8.5zm0-33.133h51.267v18.133h-51.267zm132.533 0h51.267v18.133h-51.267zm-66.266 33.133h51.267v18.133h-51.267zm66.266 25.633v-25.633h51.267v191.866c0 4.686-3.813 8.5-8.5 8.5h-34.267c-4.687 0-8.5-3.814-8.5-8.5zm8.5-91.9h34.267c4.687 0 8.5 3.813 8.5 8.5v9.634h-51.267v-9.634c0-4.687 3.813-8.5 8.5-8.5zm-66.266 0h34.267c4.687 0 8.5 3.813 8.5 8.5v17.134 25.633h-51.267v-25.633-17.134c0-4.687 3.813-8.5 8.5-8.5zm-66.267 0h34.267c4.687 0 8.5 3.813 8.5 8.5v9.634h-51.267v-9.634c0-4.687 3.813-8.5 8.5-8.5zm-124.466 141.599c0-14.134 11.499-25.632 25.632-25.632h75.334v18.134h-67.051c-8.703 0-15.784 7.08-15.784 15.783v59.483c0 4.143 3.358 7.5 7.5 7.5s7.5-3.357 7.5-7.5v-59.483c0-.432.352-.783.784-.783h67.051v109.032c0 12.958 10.542 23.5 23.5 23.5h34.267c6.177 0 11.801-2.399 16-6.31 4.199 3.911 9.823 6.31 16 6.31h34.267c6.177 0 11.801-2.399 16-6.31 4.199 3.911 9.823 6.31 16 6.31h34.266c12.958 0 23.5-10.542 23.5-23.5v-109.032h67.052c.432 0 .783.352.783.783v265.85h-349.47v-176.299c0-4.143-3.358-7.5-7.5-7.5s-7.5 3.357-7.5 7.5v176.299h-18.131zm250.066 306.484c0 .432-.352.783-.784.783h-82.833c-.432 0-.784-.352-.784-.783v-17.35h84.4v17.35z"/><path d="m185.592 246.934h8.283c4.142 0 7.5-3.357 7.5-7.5s-3.358-7.5-7.5-7.5h-8.283c-4.142 0-7.5 3.357-7.5 7.5 0 4.142 3.358 7.5 7.5 7.5z"/><path d="m256 197.233c4.142 0 7.5-3.357 7.5-7.5v-33.133c0-4.143-3.358-7.5-7.5-7.5s-7.5 3.357-7.5 7.5v33.134c0 4.142 3.358 7.499 7.5 7.499z"/><path d="m318.125 246.934h8.283c4.142 0 7.5-3.357 7.5-7.5s-3.358-7.5-7.5-7.5h-8.283c-4.142 0-7.5 3.357-7.5 7.5 0 4.142 3.358 7.5 7.5 7.5z"/><path d="m318.34 369.738c.548 6.026 4.422 11.049 10.111 13.109 5.688 2.058 11.881.682 16.161-3.598.034-.034.125-.124.301-.124.177 0 .267.09.302.125l12.219 12.218c2.914 2.914 6.788 4.518 10.908 4.518 4.121 0 7.995-1.604 10.908-4.518l12.219-12.219c6.015-6.016 6.015-15.802 0-21.817l-12.219-12.218c-.166-.167-.166-.438 0-.603 4.278-4.278 5.657-10.471 3.597-16.16s-7.083-9.564-13.108-10.111l-38.102-3.464c-4.577-.418-9.059 1.208-12.306 4.454-3.247 3.247-4.87 7.732-4.455 12.305zm11.598-39.799c.141-.141.274-.129.34-.124l38.102 3.464c.145.014.271.025.363.28s.003.344-.1.447c-6.014 6.015-6.014 15.801 0 21.816l12.219 12.219c.167.166.167.437 0 .603l-12.22 12.22c-.034.034-.125.124-.301.124s-.267-.09-.301-.125l-12.219-12.218c-2.914-2.914-6.788-4.518-10.909-4.518s-7.995 1.604-10.908 4.518c-.103.104-.191.193-.447.1-.255-.092-.266-.218-.279-.362l-3.464-38.103c-.005-.067-.017-.201.124-.341z"/></g></svg>